<svg width="57" height="57" viewBox="0 0 57 57" fill="none" xmlns="http://www.w3.org/2000/svg">
<g clip-path="url(#clip0_144_9)">
<path d="M50.3633 2.11475V8.78662C50.3633 9.7052 49.6417 10.4272 48.7227 10.4272H9.12891C8.2099 10.4272 7.48828 9.7052 7.48828 8.78662V2.11475C7.48828 1.19574 8.2099 0.474121 9.12891 0.474121H48.7227C49.6417 0.474121 50.3633 1.19574 50.3633 2.11475Z" fill="#93AFFF"/>
<path d="M48.7227 10.4272H28.9258V0.474121H48.7227C49.6417 0.474121 50.3633 1.19574 50.3633 2.11475V8.78662C50.3633 9.7052 49.6417 10.4272 48.7227 10.4272Z" fill="#89A3ED"/>
<path d="M53.6445 8.78662V15.3491C53.6445 16.2677 52.9229 16.9897 52.0039 16.9897H5.84766C4.92865 16.9897 4.20703 16.2677 4.20703 15.3491V8.78662C4.20703 7.86761 4.92865 7.146 5.84766 7.146H52.0039C52.9229 7.146 53.6445 7.86761 53.6445 8.78662Z" fill="#6987DC"/>
<path d="M53.6445 8.78662V15.3491C53.6445 16.2677 52.9229 16.9897 52.0039 16.9897H28.9258V7.146H52.0039C52.9229 7.146 53.6445 7.86761 53.6445 8.78662Z" fill="#5F7AC7"/>
<path d="M56.9258 15.3491C56.9258 14.4301 56.2042 13.7085 55.2852 13.7085H2.56641C1.6474 13.7085 0.925781 14.4301 0.925781 15.3491V54.8335C0.925781 55.7521 1.6474 56.4741 2.56641 56.4741H55.2852C56.2042 56.4741 56.9258 55.7521 56.9258 54.8335V15.3491Z" fill="#536BB1"/>
<path d="M55.2852 13.7085C56.2042 13.7085 56.9258 14.4301 56.9258 15.3491V54.8335C56.9258 55.7521 56.2042 56.4741 55.2852 56.4741H28.9258V13.7085H55.2852Z" fill="#4B61A2"/>
<path d="M38.0479 33.6582L28.9258 27.5879L23.2823 23.8144C22.7572 23.4863 22.1334 23.4534 21.5759 23.7491C21.0508 24.0439 20.7227 24.6019 20.7227 25.1927V44.8802C20.7227 45.4707 21.0508 46.0282 21.5759 46.3239C22.1005 46.6191 22.7572 46.5862 23.2823 46.2581L28.9258 42.4847L38.0479 36.4148C38.5068 36.0867 38.7695 35.594 38.7695 35.0365C38.7695 34.4785 38.5068 33.9863 38.0479 33.6582Z" fill="#E0F4FF"/>
<path d="M38.0479 33.6584C38.5068 33.9866 38.7695 34.4788 38.7695 35.0367C38.7695 35.5943 38.5068 36.0869 38.0479 36.4146L28.9258 42.4849V27.5881L38.0479 33.6584Z" fill="#BBDCFF"/>
</g>
<defs>
<clipPath id="clip0_144_9">
<rect width="56" height="56" fill="white" transform="translate(0.925781 0.474121)"/>
</clipPath>
</defs>
</svg>
