<svg width="10" height="6" viewBox="0 0 10 6" fill="none" xmlns="http://www.w3.org/2000/svg">
<path fill-rule="evenodd" clip-rule="evenodd" d="M8.91781 0.317729C8.95779 0.281986 8.9868 0.261938 9.0094 0.254642C9.26473 0.107238 9.58094 0.143859 9.80159 0.364505C10.0661 0.629059 10.0661 1.03103 9.80159 1.30066L7.63415 3.4681L5.51797 5.58428L5.46672 5.63553C5.33442 5.76783 5.20217 5.83395 4.99862 5.83395C4.8002 5.83395 4.66286 5.76783 4.53052 5.63553L4.45783 5.56008L0.198415 1.30066C-0.0661384 1.03103 -0.0661384 0.629059 0.198415 0.364505C0.462969 0.0999513 0.8649 0.0999513 1.13457 0.364505L5 4.22993L6.93204 2.29789L8.86543 0.364505C8.88239 0.347866 8.89987 0.332274 8.91781 0.317729Z" fill="#536BB1"/>
</svg>
