<svg width="24" height="25" viewBox="0 0 24 25" fill="none" xmlns="http://www.w3.org/2000/svg">
<g clip-path="url(#clip0_121_242)">
<path d="M23.9763 7.43881C23.9201 6.19132 23.7139 5.33368 23.4185 4.59052C23.1137 3.80168 22.6449 3.09543 22.0307 2.50833C21.4305 1.91208 20.7038 1.44877 19.9068 1.15531C19.1427 0.866325 18.2706 0.66459 16.9954 0.609588C15.7106 0.549928 15.3028 0.536133 12.0443 0.536133C8.78588 0.536133 8.37803 0.549928 7.09805 0.60493C5.82284 0.659932 4.94615 0.861846 4.18666 1.15065C3.38011 1.44877 2.65816 1.90742 2.05801 2.50833C1.44852 3.09543 0.975096 3.80634 0.674928 4.58604C0.379521 5.33368 0.173304 6.18666 0.11708 7.43415C0.056094 8.69095 0.0419922 9.08994 0.0419922 12.2776C0.0419922 15.4652 0.056094 15.8642 0.112318 17.1163C0.168543 18.3638 0.374943 19.2214 0.670349 19.9646C0.975096 20.7534 1.44852 21.4597 2.05801 22.0468C2.65816 22.643 3.38487 23.1063 4.1819 23.3998C4.94615 23.6888 5.81808 23.8905 7.09348 23.9455C8.37327 24.0007 8.7813 24.0143 12.0398 24.0143C15.2982 24.0143 15.7061 24.0007 16.986 23.9455C18.2612 23.8905 19.1379 23.6888 19.8974 23.3998C21.5103 22.7898 22.7856 21.5423 23.4092 19.9646C23.7044 19.217 23.9108 18.3638 23.967 17.1163C24.0232 15.8642 24.0373 15.4652 24.0373 12.2776C24.0373 9.08994 24.0326 8.69095 23.9763 7.43881ZM21.8151 17.0246C21.7634 18.1712 21.5666 18.7904 21.4025 19.2032C20.9992 20.226 20.1694 21.0378 19.1238 21.4323C18.7019 21.5928 18.0644 21.7854 16.8968 21.8357C15.631 21.8909 15.2513 21.9045 12.0491 21.9045C8.84687 21.9045 8.46246 21.8909 7.20116 21.8357C6.02906 21.7854 5.39612 21.5928 4.97417 21.4323C4.45386 21.2442 3.98026 20.946 3.59585 20.5562C3.19733 20.1755 2.89258 19.7168 2.70029 19.2078C2.53619 18.795 2.33931 18.1712 2.28785 17.0292C2.23144 15.7909 2.21753 15.4193 2.21753 12.2867C2.21753 9.15408 2.23144 8.77803 2.28785 7.54433C2.33931 6.39771 2.53619 5.77853 2.70029 5.36575C2.89258 4.85657 3.19733 4.39345 3.60061 4.01721C3.9896 3.62736 4.45844 3.32924 4.97893 3.1413C5.40089 2.98077 6.03858 2.78817 7.20592 2.73765C8.4718 2.68265 8.85163 2.66885 12.0537 2.66885C15.2607 2.66885 15.6403 2.68265 16.9016 2.73765C18.0737 2.78817 18.7066 2.98077 19.1286 3.1413C19.6489 3.32924 20.1225 3.62736 20.5069 4.01721C20.9054 4.39792 21.2102 4.85657 21.4025 5.36575C21.5666 5.77853 21.7634 6.40219 21.8151 7.54433C21.8713 8.78268 21.8854 9.15408 21.8854 12.2867C21.8854 15.4193 21.8713 15.7862 21.8151 17.0246Z" fill="#536BB1"/>
<path d="M12.0447 6.24609C8.64098 6.24609 5.87939 8.94747 5.87939 12.2773C5.87939 15.6072 8.64098 18.3086 12.0447 18.3086C15.4485 18.3086 18.2099 15.6072 18.2099 12.2773C18.2099 8.94747 15.4485 6.24609 12.0447 6.24609ZM12.0447 16.1896C9.83653 16.1896 8.04541 14.4376 8.04541 12.2773C8.04541 10.117 9.83653 8.36502 12.0447 8.36502C14.253 8.36502 16.0439 10.117 16.0439 12.2773C16.0439 14.4376 14.253 16.1896 12.0447 16.1896Z" fill="#536BB1"/>
<path d="M19.893 6.00812C19.893 6.78567 19.2485 7.41614 18.4535 7.41614C17.6586 7.41614 17.0142 6.78567 17.0142 6.00812C17.0142 5.23038 17.6586 4.6001 18.4535 4.6001C19.2485 4.6001 19.893 5.23038 19.893 6.00812Z" fill="#536BB1"/>
</g>
<defs>
<clipPath id="clip0_121_242">
<rect width="24" height="23.4783" fill="white" transform="translate(0 0.536133)"/>
</clipPath>
</defs>
</svg>
