<svg width="20" height="20" viewBox="0 0 20 20" fill="none" xmlns="http://www.w3.org/2000/svg">
<g opacity="0.3" clip-path="url(#clip0_121_274)">
<path d="M19.3359 18.1784L14.6797 13.5384C15.8164 12.1565 16.4961 10.3932 16.4961 8.46634C16.4961 4.04824 12.8984 0.463165 8.46484 0.463165C4.02734 0.463165 0.429688 4.04824 0.429688 8.47023C0.429688 12.8922 4.02734 16.4773 8.46484 16.4773C10.3945 16.4773 12.168 15.8 13.5547 14.6672L18.207 19.3033C18.5195 19.6147 19.0234 19.6147 19.3359 19.3033C19.6484 18.9919 19.6484 18.4898 19.3359 18.1784ZM2.02344 8.47023C2.02344 4.92797 4.90625 2.05524 8.46094 2.05524C12.0156 2.05524 14.8984 4.92797 14.8984 8.47023C14.8984 12.0125 12.0156 14.8852 8.46094 14.8852C4.90625 14.8852 2.02344 12.0125 2.02344 8.47023Z" fill="black"/>
</g>
<defs>
<clipPath id="clip0_121_274">
<rect width="20" height="19.9301" fill="white" transform="translate(0 0.0349731)"/>
</clipPath>
</defs>
</svg>
