<svg width="57" height="57" viewBox="0 0 57 57" fill="none" xmlns="http://www.w3.org/2000/svg">
<g clip-path="url(#clip0_146_62)">
<path d="M56.9258 36.6772H37.0195V35.0366C37.0195 26.895 30.3955 20.271 22.2539 20.271C14.1123 20.271 7.48828 26.895 7.48828 35.0366V36.6772H0.925781V35.0366C0.925781 27.5577 3.83832 20.5261 9.12677 15.2376C14.4152 9.94916 21.4468 7.03662 28.9258 7.03662C36.4047 7.03662 43.4363 9.94916 48.7248 15.2376C54.0132 20.5261 56.9258 27.5577 56.9258 35.0366V36.6772Z" fill="#93AFFF"/>
<path d="M48.7248 15.2376C43.4363 9.94916 36.4047 7.03662 28.9258 7.03662C21.4468 7.03662 14.4152 9.94916 9.12677 15.2376C8.73798 15.626 8.36414 16.0255 8.00098 16.4322L14.2217 22.6529C16.5352 21.1473 19.2939 20.271 22.2539 20.271C29.0296 20.271 34.7534 24.8592 36.4833 31.0919L56.8989 33.8403C56.6053 26.8104 53.7304 20.2432 48.7248 15.2376Z" fill="#6987DC"/>
<path d="M37.0195 35.0366V36.6772H56.9258V35.0366C56.9258 27.5577 54.0132 20.5261 48.7248 15.2376C43.4363 9.94916 36.4047 7.03662 28.9258 7.03662V21.8668C33.7242 24.3076 37.0195 29.2944 37.0195 35.0366Z" fill="#536BB1"/>
<path d="M49.9462 15.2397L24.7622 38.217C23.8406 39.0579 23.8073 40.4977 24.6895 41.3795L30.8397 47.5297C31.7229 48.4133 33.1657 48.3787 34.0056 47.4537L56.9257 22.2175V15.2397H49.9462Z" fill="#E0F4FF"/>
<path d="M30.8392 47.5297C31.7227 48.4133 33.1655 48.3787 34.0055 47.4537L56.9255 22.2175V15.2397L27.7617 44.4523L30.8392 47.5297Z" fill="#BBDCFF"/>
<path d="M28.9252 49.8578C27.1722 49.8578 25.5239 49.1751 24.2845 47.9357C21.7261 45.3769 21.7261 41.2134 24.2845 38.6546C25.5239 37.4152 27.1722 36.7324 28.9252 36.7324C30.6778 36.7324 32.3261 37.4152 33.5656 38.6546C36.1243 41.2134 36.1243 45.3765 33.5656 47.9357C32.3261 49.1751 30.6778 49.8578 28.9252 49.8578Z" fill="#536BB1"/>
<path d="M33.5657 38.6545L24.2847 47.9356C25.5241 49.175 27.1724 49.8578 28.9254 49.8578C30.678 49.8578 32.3263 49.175 33.5657 47.9356C36.1241 45.3768 36.1241 41.2133 33.5657 38.6545Z" fill="#4B61A1"/>
</g>
<defs>
<clipPath id="clip0_146_62">
<rect width="56" height="56" fill="white" transform="translate(0.925781 0.474121)"/>
</clipPath>
</defs>
</svg>
