<svg width="24" height="25" viewBox="0 0 24 25" fill="none" xmlns="http://www.w3.org/2000/svg">
<g clip-path="url(#clip0_121_246)">
<path d="M19.915 13.3034C19.527 12.8134 19.638 12.5954 19.915 12.1574C19.92 12.1524 23.123 7.72639 23.453 6.22539L23.455 6.22439C23.619 5.67739 23.455 5.27539 22.662 5.27539H20.038C19.37 5.27539 19.062 5.62039 18.897 6.00639C18.897 6.00639 17.561 9.20439 15.671 11.2774C15.061 11.8764 14.779 12.0684 14.446 12.0684C14.282 12.0684 14.027 11.8764 14.027 11.3294V6.22439C14.027 5.56839 13.84 5.27539 13.287 5.27539H9.161C8.742 5.27539 8.493 5.58139 8.493 5.86639C8.493 6.48839 9.438 6.63139 9.536 8.38139V12.1784C9.536 13.0104 9.385 13.1634 9.05 13.1634C8.158 13.1634 5.993 9.95239 4.71 6.27739C4.451 5.56439 4.198 5.27639 3.525 5.27639H0.9C0.151 5.27639 0 5.62139 0 6.00739C0 6.68939 0.892 10.0804 4.148 14.5604C6.318 17.6184 9.374 19.2754 12.154 19.2754C13.825 19.2754 14.029 18.9074 14.029 18.2744C14.029 15.3524 13.878 15.0764 14.715 15.0764C15.103 15.0764 15.771 15.2684 17.331 16.7434C19.114 18.4924 19.407 19.2754 20.405 19.2754H23.029C23.777 19.2754 24.156 18.9074 23.938 18.1814C23.439 16.6544 20.067 13.5134 19.915 13.3034Z" fill="#536BB1"/>
</g>
<defs>
<clipPath id="clip0_121_246">
<rect width="24" height="24" fill="white" transform="translate(0 0.275391)"/>
</clipPath>
</defs>
</svg>
