<svg width="56" height="57" viewBox="0 0 56 57" fill="none" xmlns="http://www.w3.org/2000/svg">
<g clip-path="url(#clip0_146_28)">
<path d="M56.0001 12.0037V52.4116C56.0001 53.3208 55.2622 54.0587 54.353 54.0587H9.11378C8.08701 54.0587 7.30696 53.1262 7.49418 52.1118C11.9039 28.2505 10.5023 35.836 14.9608 11.704C15.1047 10.9233 15.7866 10.3567 16.5805 10.3567H54.353C55.2622 10.3567 56.0001 11.0946 56.0001 12.0037Z" fill="#536BB1"/>
<path d="M15.5581 5.56032C9.83591 -0.165521 0 3.93181 0 12.0036V44.9448C0 45.854 0.737882 46.5919 1.64706 46.5919H16.5804C17.4896 46.5919 16.7518 45.4071 16.7518 44.4979L17.6582 12.4715C17.6581 10.036 17.2787 7.27984 15.5581 5.56032Z" fill="#536BB1"/>
<path d="M18.2275 12.0036V44.9448C18.2275 45.854 17.4896 46.5919 16.5804 46.5919H9.11377V2.88989C14.1471 2.88989 18.2275 6.96384 18.2275 12.0036Z" fill="#4B61A1"/>
<path d="M15.223 44.9453C15.223 49.971 9.11373 54.0585 9.11373 54.0585C4.088 54.0585 0 49.9705 0 44.9448C0 39.9191 4.088 35.8311 9.11373 35.8311C9.11373 35.8311 15.223 39.9196 15.223 44.9453Z" fill="#E0F4FF"/>
<path d="M18.2275 44.9448C18.2275 49.9705 14.1395 54.0585 9.11377 54.0585V35.8311C14.1395 35.8311 18.2275 39.9191 18.2275 44.9448Z" fill="#BBDCFF"/>
<path d="M9.11349 43.2979C8.20322 43.2979 7.46533 44.0357 7.46533 44.9449C7.46533 45.8552 8.20322 46.5931 9.11349 46.5931C10.0227 46.5931 10.7606 45.8552 10.7606 44.9449C10.7606 44.0357 10.0227 43.2979 9.11349 43.2979Z" fill="#BBDCFF"/>
<path d="M10.7608 44.9449C10.7608 45.8552 10.0229 46.5931 9.11377 46.5931V43.2979C10.0229 43.2979 10.7608 44.0357 10.7608 44.9449Z" fill="#536BB1"/>
<path d="M47.3249 20.678C46.4152 20.678 45.6772 19.94 45.6772 19.0304C45.6772 18.1208 46.4152 17.3828 47.3249 17.3828C48.2345 17.3828 48.9725 18.1208 48.9725 19.0304C48.9725 19.94 48.2345 20.678 47.3249 20.678ZM48.9714 19.0304H48.9725H48.9714ZM47.3249 19.0304H47.326H47.3249Z" fill="#E0F4FF"/>
<path d="M47.3249 29.4634C46.4152 29.4634 45.6772 28.7254 45.6772 27.8158C45.6772 26.9062 46.4152 26.1682 47.3249 26.1682C48.2345 26.1682 48.9725 26.9062 48.9725 27.8158C48.9725 28.7254 48.2345 29.4634 47.3249 29.4634ZM48.9714 27.8158H48.9725H48.9714ZM47.3249 27.8158H47.326H47.3249Z" fill="#E0F4FF"/>
<path d="M47.3249 38.2479C46.4152 38.2479 45.6772 37.5099 45.6772 36.6002C45.6772 35.6906 46.4152 34.9526 47.3249 34.9526C48.2345 34.9526 48.9725 35.6906 48.9725 36.6002C48.9725 37.5099 48.2345 38.2479 47.3249 38.2479ZM48.9714 36.6002H48.9725H48.9714ZM47.3249 36.6002H47.326H47.3249Z" fill="#E0F4FF"/>
<path d="M47.3249 46.9566C46.4152 46.9566 45.6772 46.2186 45.6772 45.309C45.6772 44.3994 46.4152 43.6614 47.3249 43.6614C48.2345 43.6614 48.9725 44.3994 48.9725 45.309C48.9725 46.2186 48.2345 46.9566 47.3249 46.9566ZM48.9714 45.309H48.9725H48.9714ZM47.3249 45.309H47.326H47.3249Z" fill="#E0F4FF"/>
<path d="M39.4186 20.678C38.509 20.678 37.771 19.94 37.771 19.0304C37.771 18.1208 38.509 17.3828 39.4186 17.3828C40.3282 17.3828 41.0662 18.1208 41.0662 19.0304C41.0662 19.94 40.3282 20.678 39.4186 20.678ZM41.0651 19.0304H41.0662H41.0651ZM39.4186 19.0304H39.4197H39.4186Z" fill="#E0F4FF"/>
<path d="M39.4186 29.4634C38.509 29.4634 37.771 28.7254 37.771 27.8158C37.771 26.9062 38.509 26.1682 39.4186 26.1682C40.3282 26.1682 41.0662 26.9062 41.0662 27.8158C41.0662 28.7254 40.3282 29.4634 39.4186 29.4634ZM41.0651 27.8158H41.0662H41.0651ZM39.4186 27.8158H39.4197H39.4186Z" fill="#E0F4FF"/>
<path d="M39.4186 38.1722C38.509 38.1722 37.771 37.4342 37.771 36.5246C37.771 35.6149 38.509 34.877 39.4186 34.877C40.3282 34.877 41.0662 35.6149 41.0662 36.5246C41.0662 37.4342 40.3282 38.1722 39.4186 38.1722ZM41.0651 36.5246H41.0662H41.0651ZM39.4186 36.5246H39.4197H39.4186Z" fill="#E0F4FF"/>
<path d="M39.4186 46.9566C38.509 46.9566 37.771 46.2186 37.771 45.309C37.771 44.3994 38.509 43.6614 39.4186 43.6614C40.3282 43.6614 41.0662 44.3994 41.0662 45.309C41.0662 46.2186 40.3282 46.9566 39.4186 46.9566ZM41.0651 45.309H41.0662H41.0651ZM39.4186 45.309H39.4197H39.4186Z" fill="#E0F4FF"/>
<path d="M31.5128 20.678C30.6032 20.678 29.8652 19.94 29.8652 19.0304C29.8652 18.1208 30.6032 17.3828 31.5128 17.3828C32.4225 17.3828 33.1605 18.1208 33.1605 19.0304C33.1605 19.94 32.4225 20.678 31.5128 20.678ZM33.1594 19.0304H33.1605H33.1594ZM31.5128 19.0304H31.5139H31.5128Z" fill="#E0F4FF"/>
<path d="M31.5128 29.4634C30.6032 29.4634 29.8652 28.7254 29.8652 27.8158C29.8652 26.9062 30.6032 26.1682 31.5128 26.1682C32.4225 26.1682 33.1605 26.9062 33.1605 27.8158C33.1605 28.7254 32.4225 29.4634 31.5128 29.4634ZM33.1594 27.8158H33.1605H33.1594ZM31.5128 27.8158H31.5139H31.5128Z" fill="#E0F4FF"/>
<path d="M31.5128 38.2479C30.6032 38.2479 29.8652 37.5099 29.8652 36.6002C29.8652 35.6906 30.6032 34.9526 31.5128 34.9526C32.4225 34.9526 33.1605 35.6906 33.1605 36.6002C33.1605 37.5099 32.4225 38.2479 31.5128 38.2479ZM33.1594 36.6002H33.1605H33.1594ZM31.5128 36.5247L31.5139 36.6002L31.5128 36.5247Z" fill="#E0F4FF"/>
<path d="M31.5128 47.032C30.6032 47.032 29.8652 46.294 29.8652 45.3844C29.8652 44.4748 30.6032 43.7368 31.5128 43.7368C32.4225 43.7368 33.1605 44.4748 33.1605 45.3844C33.1605 46.294 32.4225 47.032 31.5128 47.032ZM33.1594 45.3844H33.1605H33.1594ZM31.5128 45.3089L31.5139 45.3844L31.5128 45.3089Z" fill="#E0F4FF"/>
<path d="M23.6071 20.678C22.6975 20.678 21.9595 19.94 21.9595 19.0304C21.9595 18.1208 22.6975 17.3828 23.6071 17.3828C24.5167 17.3828 25.2547 18.1208 25.2547 19.0304C25.2547 19.94 24.5167 20.678 23.6071 20.678ZM25.2536 19.0304H25.2547H25.2536ZM23.6071 19.0304H23.6082H23.6071Z" fill="#E0F4FF"/>
<path d="M23.6071 29.4634C22.6975 29.4634 21.9595 28.7254 21.9595 27.8158C21.9595 26.9062 22.6975 26.1682 23.6071 26.1682C24.5167 26.1682 25.2547 26.9062 25.2547 27.8158C25.2547 28.7254 24.5167 29.4634 23.6071 29.4634ZM25.2536 27.8158H25.2547H25.2536ZM23.6071 27.8158H23.6082H23.6071Z" fill="#E0F4FF"/>
<path d="M23.6071 38.1722C22.6975 38.1722 21.9595 37.4342 21.9595 36.5246C21.9595 35.6149 22.6975 34.877 23.6071 34.877C24.5167 34.877 25.2547 35.6149 25.2547 36.5246C25.2547 37.4342 24.5167 38.1722 23.6071 38.1722ZM25.2536 36.5246H25.2547H25.2536ZM23.6071 36.5246H23.6082H23.6071Z" fill="#E0F4FF"/>
<path d="M23.6071 46.9566C22.6975 46.9566 21.9595 46.2186 21.9595 45.309C21.9595 44.3994 22.6975 43.6614 23.6071 43.6614C24.5167 43.6614 25.2547 44.3994 25.2547 45.309C25.2547 46.2186 24.5167 46.9566 23.6071 46.9566ZM25.2536 45.309H25.2547H25.2536ZM23.6071 45.309H23.6082H23.6071Z" fill="#E0F4FF"/>
</g>
<defs>
<clipPath id="clip0_146_28">
<rect width="56" height="56" fill="white" transform="translate(0 0.474121)"/>
</clipPath>
</defs>
</svg>
