<svg width="24" height="25" viewBox="0 0 24 25" fill="none" xmlns="http://www.w3.org/2000/svg">
<path d="M22.7747 6.65158C22.5154 5.68767 21.7554 4.92783 20.7916 4.66827C19.0309 4.18652 11.988 4.18652 11.988 4.18652C11.988 4.18652 4.94536 4.18652 3.18466 4.65001C2.23943 4.90929 1.46091 5.68781 1.20163 6.65158C0.738281 8.41214 0.738281 12.0633 0.738281 12.0633C0.738281 12.0633 0.738281 15.7329 1.20163 17.475C1.46118 18.4388 2.22089 19.1987 3.1848 19.4582C4.9639 19.9401 11.9883 19.9401 11.9883 19.9401C11.9883 19.9401 19.0309 19.9401 20.7916 19.4766C21.7555 19.2172 22.5154 18.4574 22.7749 17.4936C23.2381 15.7329 23.2381 12.0818 23.2381 12.0818C23.2381 12.0818 23.2567 8.41214 22.7747 6.65158ZM9.7457 15.4364V8.69023L15.6022 12.0633L9.7457 15.4364Z" fill="#536BB1"/>
</svg>
